<svg xmlns="http://www.w3.org/2000/svg" viewBox="0 0 900 620" preserveAspectRatio="xMidYMid slice">
  <defs>
    <linearGradient id="bg1" x1="0" y1="0" x2="1" y2="1">
      <stop offset="0%" stop-color="#f2f6fb"/>
      <stop offset="100%" stop-color="#dce7f5"/>
    </linearGradient>
    <linearGradient id="brain1" x1="0" y1="0" x2="1" y2="1">
      <stop offset="0%" stop-color="#8fbcf0"/>
      <stop offset="100%" stop-color="#2f5da8"/>
    </linearGradient>
    <linearGradient id="spine1" x1="0" y1="0" x2="0" y2="1">
      <stop offset="0%" stop-color="#d9a531"/>
      <stop offset="100%" stop-color="#9a711a"/>
    </linearGradient>
  </defs>
  <rect width="900" height="620" fill="url(#bg1)"/>
  <circle cx="760" cy="90" r="200" fill="#ffffff" opacity="0.45"/>
  <circle cx="80" cy="560" r="160" fill="#ffffff" opacity="0.35"/>

  <!-- brain -->
  <g transform="translate(450 250)">
    <ellipse cx="0" cy="0" rx="240" ry="190" fill="#ffffff" opacity="0.55"/>
    <path d="M-165,50 C-205,15 -195,-60 -135,-100 C-100,-128 -50,-140 0,-135
             C70,-142 150,-105 172,-35 C190,20 172,80 122,110
             C82,137 15,146 -40,132 C-95,120 -140,95 -165,50 Z"
          fill="url(#brain1)"/>
    <path d="M-25,-130 C-40,-75 -35,-15 -52,55 C-60,90 -75,115 -88,132"
          fill="none" stroke="#0a2547" stroke-width="6" stroke-linecap="round" opacity="0.5"/>
    <g fill="none" stroke="#0a2547" stroke-width="5" stroke-linecap="round" opacity="0.45">
      <path d="M-130,-60 C-105,-82 -75,-78 -62,-52 C-48,-26 -62,-4 -83,4"/>
      <path d="M-138,35 C-112,22 -90,35 -86,60 C-82,83 -95,100 -113,103"/>
      <path d="M8,-122 C35,-105 40,-74 22,-52 C5,-32 -22,-36 -35,-22"/>
      <path d="M60,-105 C95,-95 113,-65 100,-35 C91,-13 65,-7 48,-17"/>
      <path d="M112,-8 C139,5 143,40 121,62 C103,80 77,75 68,57"/>
      <path d="M-15,70 C12,61 38,74 42,100 C45,120 29,135 7,135"/>
      <path d="M85,82 C107,87 120,104 112,122"/>
    </g>
  </g>

  <!-- spine -->
  <g transform="translate(450 380)">
    <path d="M-20,-40 C-12,60 15,150 -4,240"
          fill="none" stroke="url(#spine1)" stroke-width="14" stroke-linecap="round"/>
    <g fill="#eec96e" stroke="#6b4e10" stroke-width="2">
      <g transform="rotate(-3 -14 0)"><rect x="-32" y="-12" width="64" height="22" rx="8"/></g>
      <g transform="rotate(-1 -8 55)"><rect x="-30" y="43" width="60" height="22" rx="8"/></g>
      <g transform="rotate(1 2 110)"><rect x="-28" y="98" width="56" height="22" rx="8"/></g>
      <g transform="rotate(2 6 165)"><rect x="-26" y="153" width="52" height="22" rx="8"/></g>
      <g transform="rotate(1 4 220)"><rect x="-24" y="208" width="48" height="22" rx="8"/></g>
    </g>
  </g>
</svg>
